<svg width="120" height="120" viewBox="0 0 120 120" fill="none" xmlns="http://www.w3.org/2000/svg">
<g clip-path="url(#clip0)">
<path d="M97.9744 29.8373C97.9744 37.7506 94.8404 45.3398 89.2618 50.9354C83.6832 56.5309 76.117 59.6745 68.2276 59.6745H50.3795C50.3795 66.0052 47.8723 72.0765 43.4094 76.553C38.9465 81.0295 32.8935 83.5443 26.582 83.5443V47.7396C26.582 41.7722 31.0441 35.8047 38.4808 35.8047H68.1152C71.4485 35.8047 74.2414 33.0613 74.1753 29.7162C74.1437 28.1549 73.5033 26.6682 72.3913 25.5752C71.2793 24.4822 69.7845 23.8699 68.2276 23.8698H26.582V0H68.2276C76.117 0 83.6832 3.14356 89.2618 8.73913C94.8404 14.3347 97.9744 21.9239 97.9744 29.8373Z" fill="#4CDA64"/>
<path d="M-0.304688 120V101.772H11.5417C16.0548 101.772 18.8632 104.086 18.8632 108.154C18.8632 112.221 16.0548 114.533 11.5417 114.533H3.92822V120H-0.304688ZM3.92822 105.446V110.861H11.5417C13.589 110.861 14.5797 109.87 14.5797 108.16C14.5797 106.451 13.589 105.46 11.5417 105.46L3.92822 105.446Z" fill="black"/>
<path d="M46.0142 116.429H35.6665L33.7341 120H29.2227L39.0995 101.772H42.5813L52.4581 120H47.945L46.0142 116.429ZM37.5855 112.884H44.0935L40.8395 106.859L37.5855 112.884Z" fill="black"/>
<path d="M65.6348 101.772H71.0238L81.1504 115.018V101.772H85.3816V120H79.9808L69.8626 106.754V120H65.6348V101.772Z" fill="black"/>
<path d="M113.454 116.429H103.106L101.173 120H96.6621L106.537 101.772H110.021L119.898 120H115.384L113.454 116.429ZM105.025 112.884H111.533L108.279 106.859L105.025 112.884Z" fill="black"/>
</g>
<defs>
<clipPath id="clip0">
<rect width="120" height="120" fill="white"/>
</clipPath>
</defs>
</svg>
