<svg width="56" height="66" viewBox="0 0 56 66" fill="none" xmlns="http://www.w3.org/2000/svg">
<path d="M56 23.5714C56 29.823 53.5417 35.8184 49.1658 40.2389C44.79 44.6595 38.8551 47.1429 32.6667 47.1429H18.6667C18.6667 52.1441 16.7 56.9405 13.1993 60.4769C9.69865 64.0133 4.95071 66 0 66V37.7143C0 33 3.5 28.2857 9.33333 28.2857H32.5785C35.1931 28.2857 37.3839 26.1185 37.332 23.4758C37.3073 22.2424 36.8049 21.0679 35.9327 20.2044C35.0604 19.3409 33.8879 18.8572 32.6667 18.8571H0V0H32.6667C38.8551 0 44.79 2.48341 49.1658 6.90391C53.5417 11.3244 56 17.3199 56 23.5714Z" fill="#4CDA64"/>
</svg>
